<?xml version="1.0" encoding="utf-8"?>
<!-- Generator: Adobe Illustrator 23.0.5, SVG Export Plug-In . SVG Version: 6.00 Build 0)  -->
<svg version="1.1" id="publicdomainvectors.org" xmlns="http://www.w3.org/2000/svg" xmlns:xlink="http://www.w3.org/1999/xlink"
	 x="0px" y="0px" viewBox="0 0 592.62 260.71" style="enable-background:new 0 0 592.62 260.71;" xml:space="preserve">
<style type="text/css">
	.st0{fill-rule:evenodd;clip-rule:evenodd;fill:#F2A273;}
	.st1{fill-rule:evenodd;clip-rule:evenodd;fill:#D97D49;}
	.st2{fill-rule:evenodd;clip-rule:evenodd;fill:#FFDE13;}
</style>
<g>
	<path class="st0" d="M181.93,165.05c1.73,5.5,2.68,11.44,2.68,17.64c0,28.08-19.4,50.84-43.34,50.84
		c-23.94,0-43.34-22.76-43.34-50.84c0-15.54,5.95-29.45,15.32-38.78c-9.37-9.33-15.32-23.24-15.32-38.78c0-0.52,0.01-1.03,0.02-1.54
		c-0.26,0.01-0.52,0.01-0.78,0.01c-14.35,0-25.98-12.75-25.98-28.48c0-15.73,11.63-28.48,25.98-28.48c5.96,0,11.45,2.2,15.83,5.9
		C117.87,56.65,124,57.9,130.1,56c0.91-0.28,1.84-0.53,2.78-0.75c10.73-2.68,16.18-8.03,18.45-18.25
		c-1.08-4.98-0.91-10.48,0.74-15.94c4.54-15.01,18.59-24.04,31.39-20.16c12.8,3.87,19.49,19.17,14.95,34.18
		c-0.7,2.32-1.63,4.5-2.75,6.52l0,0v0c-2.21,3.97-5.16,7.28-8.52,9.74c-9.69,14.38-6.77,27.98-4.28,39.4
		c1.18,4.71,1.77,9.54,1.77,14.4c0,6.2-0.95,12.15-2.68,17.65C177.4,137.14,177.4,150.69,181.93,165.05z"/>
	<path class="st1" d="M199.71,21.25c0.34,3.92-0.06,8.06-1.3,12.18c-0.7,2.32-1.63,4.5-2.75,6.52l0,0l0,0
		c-2.21,3.97-5.15,7.28-8.52,9.74c-9.69,14.38-6.77,27.98-4.28,39.4c1.18,4.71,1.77,9.54,1.77,14.4c0,6.2-0.95,12.15-2.68,17.64
		c-4.53,14.36-4.53,27.91,0,42.27c1.74,5.5,2.68,11.44,2.68,17.65c0,28.08-19.4,50.84-43.34,50.84c-3.31,0-6.54-0.44-9.64-1.26
		c23.39-1.14,35.04-13.86,39.36-32.85c4.8-21.12-14.75-31.07-13.7-56.46c0.58-14.15,13.22-25.07,13.98-42.21
		c0.72-16.3-0.55-32.25-7.4-47.69C181.8,46.73,195.65,38.37,199.71,21.25z"/>
	<path class="st0" d="M409.16,0.9c-12.79,3.87-19.49,19.17-14.95,34.18c0.7,2.32,1.63,4.5,2.75,6.51v0l0,0
		c2.21,3.97,5.15,7.28,8.52,9.74c9.69,14.38,6.77,27.98,4.29,39.4c-1.19,4.71-1.77,9.54-1.77,14.4c0,6.2,0.95,12.15,2.68,17.65
		c4.53,14.36,4.53,27.91,0,42.27c-1.73,5.5-2.68,11.44-2.68,17.64c0,28.08,19.41,50.84,43.34,50.84c23.94,0,43.34-22.76,43.34-50.84
		c0-15.54-5.95-29.45-15.32-38.78c9.37-9.33,15.32-23.24,15.32-38.78c0-0.52-0.01-1.03-0.02-1.54c0.26,0.01,0.52,0.01,0.78,0.01
		c14.35,0,25.98-12.75,25.98-28.48c0-15.73-11.63-28.48-25.98-28.48c-5.96,0-11.45,2.2-15.83,5.9c-4.88,4.11-11.01,5.36-17.11,3.46
		c-0.91-0.28-1.84-0.53-2.78-0.75c-10.73-2.68-16.18-8.03-18.45-18.25c1.08-4.98,0.91-10.48-0.74-15.94
		C436,6.05,421.95-2.97,409.16,0.9z"/>
	<path class="st1" d="M392.91,22.9c-0.34,3.92,0.06,8.06,1.3,12.18c0.7,2.32,1.63,4.5,2.75,6.51v0l0,0
		c2.21,3.97,5.15,7.28,8.52,9.74c9.69,14.38,6.77,27.98,4.29,39.4c-1.19,4.71-1.77,9.54-1.77,14.4c0,6.2,0.95,12.15,2.68,17.65
		c4.53,14.36,4.53,27.91,0,42.27c-1.73,5.5-2.68,11.44-2.68,17.64c0,28.08,19.41,50.84,43.34,50.84c3.31,0,6.54-0.44,9.64-1.26
		c-23.39-1.14-35.04-13.86-39.36-32.84c-4.8-21.12,14.75-31.08,13.7-56.46c-0.58-14.15-13.22-25.07-13.98-42.21
		c-0.72-16.31,0.55-32.25,7.4-47.69C410.81,48.37,396.96,40.02,392.91,22.9z"/>
	<rect x="73.8" y="239.11" class="st2" width="445.02" height="9.2"/>
	<rect x="73.8" y="46.63" class="st2" width="445.02" height="9.2"/>
	<path class="st0" d="M72.39,11.41c11.84,0,21.44,10.52,21.44,23.5c0,0.72-0.03,1.44-0.09,2.14c7.13,4.89,11.88,13.58,11.88,23.48
		c0,15.29-11.31,27.69-25.26,27.69c-13.58,0-24.65-11.74-25.23-26.46c-0.28-7.03-1.24-13-3.19-19.8c-0.64-2.22-0.98-4.59-0.98-7.05
		C50.96,21.94,60.55,11.41,72.39,11.41z"/>
	<path class="st0" d="M96.71,159c17.75,0,32.24-15.87,32.24-35.34c0-19.46-14.48-35.34-32.24-35.34
		c-17.76,0-32.24,15.87-32.24,35.34C64.47,143.13,78.95,159,96.71,159z"/>
	<path class="st0" d="M74.15,260.71c11.79,0,21.41-9.45,21.41-21.04c0-11.59-9.62-21.04-21.41-21.04
		c-11.79,0-21.41,9.45-21.41,21.04C52.74,251.26,62.35,260.71,74.15,260.71z"/>
	<path class="st0" d="M61.27,82.72c21.14,0,38.27,13.8,38.27,30.82c0,17.03-17.13,30.83-38.27,30.83c-9.26,0-17.75-2.65-24.37-7.06
		c-7.13-4.75-13.67-8.24-21.72-11.57C6.31,122.06,0,112.66,0,101.64c0-14.22,10.52-25.75,23.49-25.75c7.87,0,14.83,4.24,19.09,10.74
		C48.11,84.14,54.48,82.72,61.27,82.72z"/>
	<path class="st0" d="M520.22,11.41c-11.84,0-21.44,10.52-21.44,23.5c0,0.72,0.03,1.44,0.09,2.14C491.74,41.95,487,50.64,487,60.54
		c0,15.29,11.31,27.69,25.26,27.69c13.58,0,24.65-11.74,25.24-26.46c0.28-7.03,1.24-13,3.19-19.8c0.64-2.22,0.98-4.59,0.98-7.05
		C541.66,21.94,532.06,11.41,520.22,11.41z"/>
	<path class="st0" d="M495.91,159c17.76,0,32.24-15.87,32.24-35.34c0-19.46-14.48-35.34-32.24-35.34
		c-17.75,0-32.24,15.87-32.24,35.34C463.67,143.13,478.15,159,495.91,159z"/>
	<path class="st0" d="M518.47,260.71c11.79,0,21.41-9.45,21.41-21.04c0-11.59-9.62-21.04-21.41-21.04
		c-11.79,0-21.41,9.45-21.41,21.04C497.06,251.26,506.68,260.71,518.47,260.71z"/>
	<path class="st0" d="M531.35,82.72c-21.14,0-38.27,13.8-38.27,30.82c0,17.03,17.13,30.83,38.27,30.83c9.26,0,17.75-2.65,24.37-7.06
		c7.13-4.75,13.67-8.24,21.72-11.57c8.87-3.68,15.18-13.08,15.18-24.09c0-14.22-10.52-25.75-23.49-25.75
		c-7.87,0-14.83,4.24-19.09,10.74C544.51,84.14,538.13,82.72,531.35,82.72z"/>
	<path class="st0" d="M496.32,139.69c-16.92,0-30.64,15.04-30.64,33.59c0,4.33,0.75,8.47,2.11,12.27
		c-7.94,5.71-13.19,15.56-13.19,26.75c0,17.66,13.06,31.97,29.16,31.97c1.86,0,3.68-0.19,5.45-0.56c3.68,4.59,9.07,7.49,15.09,7.49
		c11.08,0,20.07-9.85,20.07-22c0-6.5-2.57-12.34-6.66-16.37c-3.05-3-4.02-7.09-2.9-10.79c1.16-3.8,5.42-6.08,9.63-5.15
		c1.66,0.37,3.38,0.56,5.14,0.56c6.37,0,12.2-2.52,16.71-6.7c2.79,1.42,5.9,2.22,9.18,2.22c12.04,0,21.8-10.7,21.8-23.9
		c0-13.2-9.76-23.9-21.8-23.9c-3.28,0-6.39,0.8-9.19,2.22c-4.51-4.18-10.34-6.7-16.7-6.7c-5.69,0-10.96,2.02-15.23,5.43
		C509.3,142.08,503.07,139.69,496.32,139.69z"/>
	<path class="st1" d="M432.06,130.52c18.03,19.07,32.34-6.63,44.53-57.73c-1.52,14.84,3.84,25.66,18.87,30.81
		c-9.3,12.2-10.5,33.64,0.87,44.83c-14.5,4.76-18.58,23.21-10.24,38.93c-13.75,6.22-22.06,17.89-24.84,35.08
		c1.72-59.05-15.19-73.51-29.74-59.02C425.7,152.52,429.91,137.59,432.06,130.52z"/>
	<path class="st0" d="M96.29,139.69c16.92,0,30.64,15.04,30.64,33.59c0,4.33-0.75,8.47-2.11,12.27
		c7.94,5.71,13.19,15.56,13.19,26.75c0,17.66-13.06,31.97-29.16,31.97c-1.86,0-3.68-0.19-5.45-0.56c-3.68,4.59-9.07,7.49-15.09,7.49
		c-11.08,0-20.07-9.85-20.07-22c0-6.5,2.57-12.34,6.66-16.37c3.05-3,4.02-7.09,2.9-10.79c-1.15-3.8-5.42-6.08-9.63-5.15
		c-1.66,0.37-3.38,0.56-5.14,0.56c-6.37,0-12.2-2.52-16.71-6.7c-2.79,1.42-5.9,2.22-9.18,2.22c-12.04,0-21.8-10.7-21.8-23.9
		c0-13.2,9.76-23.9,21.8-23.9c3.28,0,6.39,0.8,9.18,2.22c4.51-4.18,10.34-6.7,16.71-6.7c5.69,0,10.96,2.02,15.23,5.43
		C83.31,142.08,89.55,139.69,96.29,139.69z"/>
	<path class="st1" d="M161.15,130.52c-18.03,19.07-32.34-6.63-44.52-57.73c1.52,14.84-3.84,25.66-18.87,30.81
		c9.3,12.2,10.5,33.64-0.87,44.83c14.5,4.76,18.58,23.21,10.24,38.93c13.75,6.22,22.06,17.89,24.84,35.08
		c-1.72-59.05,15.19-73.51,29.74-59.02C167.51,152.52,163.3,137.59,161.15,130.52z"/>
	<path class="st2" d="M57.76,74.71l460.91,121.23c7.46,1.96,5.42,10.94-2.31,8.91L55.47,83.62C49.02,81.93,51.48,73.06,57.76,74.71z
		"/>
	<path class="st2" d="M534.61,74.13L75.56,198.94c-7.44,2.02-5.41,11.01,2.31,8.91L536.91,83.04
		C543.34,81.29,540.88,72.42,534.61,74.13z"/>
</g>
</svg>
